<mxfile host="Electron" agent="Mozilla/5.0 (Windows NT 10.0; Win64; x64) AppleWebKit/537.36 (KHTML, like Gecko) draw.io/24.7.17 Chrome/128.0.6613.36 Electron/32.0.1 Safari/537.36" version="24.7.17">
  <diagram name="Page-1" id="NgWu3Tvl6rgE3X_M5tvz">
    <mxGraphModel dx="5833" dy="1487" grid="1" gridSize="10" guides="1" tooltips="1" connect="1" arrows="1" fold="1" page="1" pageScale="1" pageWidth="3500" pageHeight="2000" math="0" shadow="0">
      <root>
        <mxCell id="0" />
        <mxCell id="1" parent="0" />
        <mxCell id="YsOn6gidDrJ1uqWeEh6G-118" style="edgeStyle=orthogonalEdgeStyle;rounded=0;orthogonalLoop=1;jettySize=auto;html=1;exitX=0.25;exitY=1;exitDx=0;exitDy=0;entryX=0.5;entryY=0;entryDx=0;entryDy=0;" edge="1" parent="1" source="YsOn6gidDrJ1uqWeEh6G-1" target="YsOn6gidDrJ1uqWeEh6G-3">
          <mxGeometry relative="1" as="geometry" />
        </mxCell>
        <mxCell id="YsOn6gidDrJ1uqWeEh6G-119" style="edgeStyle=orthogonalEdgeStyle;rounded=0;orthogonalLoop=1;jettySize=auto;html=1;exitX=0.75;exitY=1;exitDx=0;exitDy=0;entryX=0.5;entryY=0;entryDx=0;entryDy=0;" edge="1" parent="1" source="YsOn6gidDrJ1uqWeEh6G-1" target="YsOn6gidDrJ1uqWeEh6G-2">
          <mxGeometry relative="1" as="geometry" />
        </mxCell>
        <mxCell id="YsOn6gidDrJ1uqWeEh6G-137" style="edgeStyle=orthogonalEdgeStyle;rounded=0;orthogonalLoop=1;jettySize=auto;html=1;entryX=0.5;entryY=0;entryDx=0;entryDy=0;" edge="1" parent="1" source="YsOn6gidDrJ1uqWeEh6G-1" target="YsOn6gidDrJ1uqWeEh6G-9">
          <mxGeometry relative="1" as="geometry" />
        </mxCell>
        <mxCell id="YsOn6gidDrJ1uqWeEh6G-1" value="Investigación y Comprensión de la Idea" style="whiteSpace=wrap;strokeWidth=2;" vertex="1" parent="1">
          <mxGeometry x="-2411" y="140" width="228" height="66" as="geometry" />
        </mxCell>
        <mxCell id="YsOn6gidDrJ1uqWeEh6G-122" style="edgeStyle=orthogonalEdgeStyle;rounded=0;orthogonalLoop=1;jettySize=auto;html=1;exitX=0.25;exitY=1;exitDx=0;exitDy=0;entryX=0.5;entryY=0;entryDx=0;entryDy=0;" edge="1" parent="1" source="YsOn6gidDrJ1uqWeEh6G-2" target="YsOn6gidDrJ1uqWeEh6G-4">
          <mxGeometry relative="1" as="geometry" />
        </mxCell>
        <mxCell id="YsOn6gidDrJ1uqWeEh6G-123" style="edgeStyle=orthogonalEdgeStyle;rounded=0;orthogonalLoop=1;jettySize=auto;html=1;exitX=0.5;exitY=1;exitDx=0;exitDy=0;entryX=0.5;entryY=0;entryDx=0;entryDy=0;" edge="1" parent="1" source="YsOn6gidDrJ1uqWeEh6G-2" target="YsOn6gidDrJ1uqWeEh6G-6">
          <mxGeometry relative="1" as="geometry" />
        </mxCell>
        <mxCell id="YsOn6gidDrJ1uqWeEh6G-124" style="edgeStyle=orthogonalEdgeStyle;rounded=0;orthogonalLoop=1;jettySize=auto;html=1;exitX=0.75;exitY=1;exitDx=0;exitDy=0;entryX=0.5;entryY=0;entryDx=0;entryDy=0;" edge="1" parent="1" source="YsOn6gidDrJ1uqWeEh6G-2" target="YsOn6gidDrJ1uqWeEh6G-5">
          <mxGeometry relative="1" as="geometry" />
        </mxCell>
        <mxCell id="YsOn6gidDrJ1uqWeEh6G-2" value="Investigación de Fuentes" style="whiteSpace=wrap;strokeWidth=2;" vertex="1" parent="1">
          <mxGeometry x="-1836" y="340" width="237" height="48" as="geometry" />
        </mxCell>
        <mxCell id="YsOn6gidDrJ1uqWeEh6G-120" style="edgeStyle=orthogonalEdgeStyle;rounded=0;orthogonalLoop=1;jettySize=auto;html=1;exitX=0.25;exitY=1;exitDx=0;exitDy=0;entryX=0.25;entryY=0;entryDx=0;entryDy=0;" edge="1" parent="1" source="YsOn6gidDrJ1uqWeEh6G-3" target="YsOn6gidDrJ1uqWeEh6G-8">
          <mxGeometry relative="1" as="geometry" />
        </mxCell>
        <mxCell id="YsOn6gidDrJ1uqWeEh6G-121" style="edgeStyle=orthogonalEdgeStyle;rounded=0;orthogonalLoop=1;jettySize=auto;html=1;exitX=0.75;exitY=1;exitDx=0;exitDy=0;entryX=0.75;entryY=0;entryDx=0;entryDy=0;" edge="1" parent="1" source="YsOn6gidDrJ1uqWeEh6G-3" target="YsOn6gidDrJ1uqWeEh6G-7">
          <mxGeometry relative="1" as="geometry" />
        </mxCell>
        <mxCell id="YsOn6gidDrJ1uqWeEh6G-3" value="Entender el Sector" style="whiteSpace=wrap;strokeWidth=2;" vertex="1" parent="1">
          <mxGeometry x="-2660" y="340" width="195" height="48" as="geometry" />
        </mxCell>
        <mxCell id="YsOn6gidDrJ1uqWeEh6G-4" value="Buscar y comparar fuentes" style="whiteSpace=wrap;strokeWidth=2;" vertex="1" parent="1">
          <mxGeometry x="-2157" y="500" width="251" height="48" as="geometry" />
        </mxCell>
        <mxCell id="YsOn6gidDrJ1uqWeEh6G-134" style="edgeStyle=orthogonalEdgeStyle;rounded=0;orthogonalLoop=1;jettySize=auto;html=1;exitX=0.75;exitY=1;exitDx=0;exitDy=0;entryX=0.75;entryY=0;entryDx=0;entryDy=0;" edge="1" parent="1" source="YsOn6gidDrJ1uqWeEh6G-5" target="YsOn6gidDrJ1uqWeEh6G-15">
          <mxGeometry relative="1" as="geometry" />
        </mxCell>
        <mxCell id="YsOn6gidDrJ1uqWeEh6G-5" value="Recopilar datos de Superintendencia de Sociedades" style="whiteSpace=wrap;strokeWidth=2;" vertex="1" parent="1">
          <mxGeometry x="-1530" y="500" width="207" height="84" as="geometry" />
        </mxCell>
        <mxCell id="YsOn6gidDrJ1uqWeEh6G-136" style="edgeStyle=orthogonalEdgeStyle;rounded=0;orthogonalLoop=1;jettySize=auto;html=1;entryX=0.5;entryY=0;entryDx=0;entryDy=0;" edge="1" parent="1" source="YsOn6gidDrJ1uqWeEh6G-6" target="YsOn6gidDrJ1uqWeEh6G-15">
          <mxGeometry relative="1" as="geometry" />
        </mxCell>
        <mxCell id="YsOn6gidDrJ1uqWeEh6G-6" value="Recopilar datos de SECOP" style="whiteSpace=wrap;strokeWidth=2;" vertex="1" parent="1">
          <mxGeometry x="-1839" y="500" width="243" height="48" as="geometry" />
        </mxCell>
        <mxCell id="YsOn6gidDrJ1uqWeEh6G-7" value="Analizar el sector de la construcción" style="whiteSpace=wrap;strokeWidth=2;" vertex="1" parent="1">
          <mxGeometry x="-2500" y="500" width="227" height="66" as="geometry" />
        </mxCell>
        <mxCell id="YsOn6gidDrJ1uqWeEh6G-130" style="edgeStyle=orthogonalEdgeStyle;rounded=0;orthogonalLoop=1;jettySize=auto;html=1;exitX=0;exitY=0.5;exitDx=0;exitDy=0;entryX=1;entryY=0.5;entryDx=0;entryDy=0;" edge="1" parent="1" source="YsOn6gidDrJ1uqWeEh6G-8" target="YsOn6gidDrJ1uqWeEh6G-11">
          <mxGeometry relative="1" as="geometry" />
        </mxCell>
        <mxCell id="YsOn6gidDrJ1uqWeEh6G-8" value="Identificar necesidades del sector" style="whiteSpace=wrap;strokeWidth=2;" vertex="1" parent="1">
          <mxGeometry x="-2810" y="500" width="253" height="66" as="geometry" />
        </mxCell>
        <mxCell id="YsOn6gidDrJ1uqWeEh6G-127" style="edgeStyle=orthogonalEdgeStyle;rounded=0;orthogonalLoop=1;jettySize=auto;html=1;exitX=0.5;exitY=1;exitDx=0;exitDy=0;entryX=0.5;entryY=0;entryDx=0;entryDy=0;" edge="1" parent="1" source="YsOn6gidDrJ1uqWeEh6G-9" target="YsOn6gidDrJ1uqWeEh6G-10">
          <mxGeometry relative="1" as="geometry" />
        </mxCell>
        <mxCell id="YsOn6gidDrJ1uqWeEh6G-9" value="Definición del Sector Objetivo" style="whiteSpace=wrap;strokeWidth=2;" vertex="1" parent="1">
          <mxGeometry x="-3200" y="206" width="211" height="66" as="geometry" />
        </mxCell>
        <mxCell id="YsOn6gidDrJ1uqWeEh6G-10" value="Selección del Sector" style="whiteSpace=wrap;strokeWidth=2;" vertex="1" parent="1">
          <mxGeometry x="-3197.5" y="340" width="206" height="48" as="geometry" />
        </mxCell>
        <mxCell id="YsOn6gidDrJ1uqWeEh6G-131" style="edgeStyle=orthogonalEdgeStyle;rounded=0;orthogonalLoop=1;jettySize=auto;html=1;exitX=0.25;exitY=1;exitDx=0;exitDy=0;entryX=0.5;entryY=0;entryDx=0;entryDy=0;" edge="1" parent="1" source="YsOn6gidDrJ1uqWeEh6G-11" target="YsOn6gidDrJ1uqWeEh6G-14">
          <mxGeometry relative="1" as="geometry" />
        </mxCell>
        <mxCell id="YsOn6gidDrJ1uqWeEh6G-132" style="edgeStyle=orthogonalEdgeStyle;rounded=0;orthogonalLoop=1;jettySize=auto;html=1;exitX=0.75;exitY=1;exitDx=0;exitDy=0;entryX=0.5;entryY=0;entryDx=0;entryDy=0;" edge="1" parent="1" source="YsOn6gidDrJ1uqWeEh6G-11" target="YsOn6gidDrJ1uqWeEh6G-13">
          <mxGeometry relative="1" as="geometry" />
        </mxCell>
        <mxCell id="YsOn6gidDrJ1uqWeEh6G-11" value="Análisis de Mercado" style="whiteSpace=wrap;strokeWidth=2;" vertex="1" parent="1">
          <mxGeometry x="-3130" y="509" width="202" height="48" as="geometry" />
        </mxCell>
        <mxCell id="YsOn6gidDrJ1uqWeEh6G-128" style="edgeStyle=orthogonalEdgeStyle;rounded=0;orthogonalLoop=1;jettySize=auto;html=1;exitX=1;exitY=0.5;exitDx=0;exitDy=0;entryX=0;entryY=0.5;entryDx=0;entryDy=0;" edge="1" parent="1" source="YsOn6gidDrJ1uqWeEh6G-12" target="YsOn6gidDrJ1uqWeEh6G-3">
          <mxGeometry relative="1" as="geometry" />
        </mxCell>
        <mxCell id="YsOn6gidDrJ1uqWeEh6G-12" value="Decidir sector de construcción" style="whiteSpace=wrap;strokeWidth=2;" vertex="1" parent="1">
          <mxGeometry x="-2910" y="331" width="182" height="66" as="geometry" />
        </mxCell>
        <mxCell id="YsOn6gidDrJ1uqWeEh6G-13" value="Analizar demanda de proveedores" style="whiteSpace=wrap;strokeWidth=2;" vertex="1" parent="1">
          <mxGeometry x="-2940" y="700" width="212" height="66" as="geometry" />
        </mxCell>
        <mxCell id="YsOn6gidDrJ1uqWeEh6G-14" value="Identificar competencia y brechas" style="whiteSpace=wrap;strokeWidth=2;" vertex="1" parent="1">
          <mxGeometry x="-3350" y="700" width="245" height="66" as="geometry" />
        </mxCell>
        <mxCell id="YsOn6gidDrJ1uqWeEh6G-143" style="edgeStyle=orthogonalEdgeStyle;rounded=0;orthogonalLoop=1;jettySize=auto;html=1;exitX=0.5;exitY=1;exitDx=0;exitDy=0;entryX=0.5;entryY=0;entryDx=0;entryDy=0;" edge="1" parent="1" source="YsOn6gidDrJ1uqWeEh6G-15" target="YsOn6gidDrJ1uqWeEh6G-18">
          <mxGeometry relative="1" as="geometry" />
        </mxCell>
        <mxCell id="YsOn6gidDrJ1uqWeEh6G-148" style="edgeStyle=orthogonalEdgeStyle;rounded=0;orthogonalLoop=1;jettySize=auto;html=1;exitX=0.75;exitY=1;exitDx=0;exitDy=0;entryX=0.5;entryY=0;entryDx=0;entryDy=0;" edge="1" parent="1" source="YsOn6gidDrJ1uqWeEh6G-15" target="YsOn6gidDrJ1uqWeEh6G-16">
          <mxGeometry relative="1" as="geometry" />
        </mxCell>
        <mxCell id="YsOn6gidDrJ1uqWeEh6G-149" style="edgeStyle=orthogonalEdgeStyle;rounded=0;orthogonalLoop=1;jettySize=auto;html=1;exitX=0.25;exitY=1;exitDx=0;exitDy=0;entryX=0.5;entryY=0;entryDx=0;entryDy=0;" edge="1" parent="1" source="YsOn6gidDrJ1uqWeEh6G-15" target="YsOn6gidDrJ1uqWeEh6G-17">
          <mxGeometry relative="1" as="geometry" />
        </mxCell>
        <mxCell id="YsOn6gidDrJ1uqWeEh6G-15" value="Planeación de la Estructura de Datos" style="whiteSpace=wrap;strokeWidth=2;" vertex="1" parent="1">
          <mxGeometry x="-1846" y="660" width="257" height="66" as="geometry" />
        </mxCell>
        <mxCell id="YsOn6gidDrJ1uqWeEh6G-146" style="edgeStyle=orthogonalEdgeStyle;rounded=0;orthogonalLoop=1;jettySize=auto;html=1;entryX=0.5;entryY=0;entryDx=0;entryDy=0;" edge="1" parent="1" source="YsOn6gidDrJ1uqWeEh6G-16" target="YsOn6gidDrJ1uqWeEh6G-19">
          <mxGeometry relative="1" as="geometry" />
        </mxCell>
        <mxCell id="YsOn6gidDrJ1uqWeEh6G-16" value="Planeación de Almacenamiento" style="whiteSpace=wrap;strokeWidth=2;" vertex="1" parent="1">
          <mxGeometry x="-1532" y="820" width="181" height="66" as="geometry" />
        </mxCell>
        <mxCell id="YsOn6gidDrJ1uqWeEh6G-139" style="edgeStyle=orthogonalEdgeStyle;rounded=0;orthogonalLoop=1;jettySize=auto;html=1;exitX=0.75;exitY=1;exitDx=0;exitDy=0;entryX=0.5;entryY=0;entryDx=0;entryDy=0;" edge="1" parent="1" source="YsOn6gidDrJ1uqWeEh6G-17" target="YsOn6gidDrJ1uqWeEh6G-20">
          <mxGeometry relative="1" as="geometry" />
        </mxCell>
        <mxCell id="YsOn6gidDrJ1uqWeEh6G-140" style="edgeStyle=orthogonalEdgeStyle;rounded=0;orthogonalLoop=1;jettySize=auto;html=1;exitX=0.25;exitY=1;exitDx=0;exitDy=0;entryX=0.5;entryY=0;entryDx=0;entryDy=0;" edge="1" parent="1" source="YsOn6gidDrJ1uqWeEh6G-17" target="YsOn6gidDrJ1uqWeEh6G-21">
          <mxGeometry relative="1" as="geometry" />
        </mxCell>
        <mxCell id="YsOn6gidDrJ1uqWeEh6G-159" style="edgeStyle=orthogonalEdgeStyle;rounded=0;orthogonalLoop=1;jettySize=auto;html=1;entryX=1;entryY=0.5;entryDx=0;entryDy=0;" edge="1" parent="1" source="YsOn6gidDrJ1uqWeEh6G-17" target="YsOn6gidDrJ1uqWeEh6G-23">
          <mxGeometry relative="1" as="geometry" />
        </mxCell>
        <mxCell id="YsOn6gidDrJ1uqWeEh6G-17" value="Creación de Base de Datos" style="whiteSpace=wrap;strokeWidth=2;" vertex="1" parent="1">
          <mxGeometry x="-2245.5" y="820" width="250" height="48" as="geometry" />
        </mxCell>
        <mxCell id="YsOn6gidDrJ1uqWeEh6G-147" style="edgeStyle=orthogonalEdgeStyle;rounded=0;orthogonalLoop=1;jettySize=auto;html=1;entryX=0.5;entryY=0;entryDx=0;entryDy=0;" edge="1" parent="1" source="YsOn6gidDrJ1uqWeEh6G-18" target="YsOn6gidDrJ1uqWeEh6G-22">
          <mxGeometry relative="1" as="geometry" />
        </mxCell>
        <mxCell id="YsOn6gidDrJ1uqWeEh6G-18" value="Crear Vista para Consultas" style="whiteSpace=wrap;strokeWidth=2;" vertex="1" parent="1">
          <mxGeometry x="-1842" y="820" width="249" height="48" as="geometry" />
        </mxCell>
        <mxCell id="YsOn6gidDrJ1uqWeEh6G-19" value="Definir almacenamiento de datos en PostgreSQL" style="whiteSpace=wrap;strokeWidth=2;" vertex="1" parent="1">
          <mxGeometry x="-1569" y="950" width="255" height="66" as="geometry" />
        </mxCell>
        <mxCell id="YsOn6gidDrJ1uqWeEh6G-20" value="Crear base de datos en Xata" style="whiteSpace=wrap;strokeWidth=2;" vertex="1" parent="1">
          <mxGeometry x="-2104" y="940" width="225" height="66" as="geometry" />
        </mxCell>
        <mxCell id="YsOn6gidDrJ1uqWeEh6G-21" value="Subir los datos a la base de datos" style="whiteSpace=wrap;strokeWidth=2;" vertex="1" parent="1">
          <mxGeometry x="-2374" y="940" width="255" height="66" as="geometry" />
        </mxCell>
        <mxCell id="YsOn6gidDrJ1uqWeEh6G-22" value="Definir vista para consultas" style="whiteSpace=wrap;strokeWidth=2;" vertex="1" parent="1">
          <mxGeometry x="-1846" y="940" width="255" height="48" as="geometry" />
        </mxCell>
        <mxCell id="YsOn6gidDrJ1uqWeEh6G-151" style="edgeStyle=orthogonalEdgeStyle;rounded=0;orthogonalLoop=1;jettySize=auto;html=1;exitX=0.5;exitY=1;exitDx=0;exitDy=0;entryX=0.5;entryY=0;entryDx=0;entryDy=0;" edge="1" parent="1" source="YsOn6gidDrJ1uqWeEh6G-23" target="YsOn6gidDrJ1uqWeEh6G-25">
          <mxGeometry relative="1" as="geometry" />
        </mxCell>
        <mxCell id="YsOn6gidDrJ1uqWeEh6G-152" style="edgeStyle=orthogonalEdgeStyle;rounded=0;orthogonalLoop=1;jettySize=auto;html=1;exitX=0.75;exitY=1;exitDx=0;exitDy=0;entryX=0.5;entryY=0;entryDx=0;entryDy=0;" edge="1" parent="1" source="YsOn6gidDrJ1uqWeEh6G-23" target="YsOn6gidDrJ1uqWeEh6G-26">
          <mxGeometry relative="1" as="geometry" />
        </mxCell>
        <mxCell id="YsOn6gidDrJ1uqWeEh6G-153" style="edgeStyle=orthogonalEdgeStyle;rounded=0;orthogonalLoop=1;jettySize=auto;html=1;exitX=0.25;exitY=1;exitDx=0;exitDy=0;entryX=0.5;entryY=0;entryDx=0;entryDy=0;" edge="1" parent="1" source="YsOn6gidDrJ1uqWeEh6G-23" target="YsOn6gidDrJ1uqWeEh6G-24">
          <mxGeometry relative="1" as="geometry" />
        </mxCell>
        <mxCell id="YsOn6gidDrJ1uqWeEh6G-23" value="Análisis de los Datos" style="whiteSpace=wrap;strokeWidth=2;" vertex="1" parent="1">
          <mxGeometry x="-2893.5" y="820" width="206" height="48" as="geometry" />
        </mxCell>
        <mxCell id="YsOn6gidDrJ1uqWeEh6G-157" style="edgeStyle=orthogonalEdgeStyle;rounded=0;orthogonalLoop=1;jettySize=auto;html=1;exitX=0.5;exitY=1;exitDx=0;exitDy=0;entryX=0.5;entryY=0;entryDx=0;entryDy=0;" edge="1" parent="1" source="YsOn6gidDrJ1uqWeEh6G-24" target="YsOn6gidDrJ1uqWeEh6G-27">
          <mxGeometry relative="1" as="geometry" />
        </mxCell>
        <mxCell id="YsOn6gidDrJ1uqWeEh6G-24" value="Revisión y Relación de la Información" style="whiteSpace=wrap;strokeWidth=2;" vertex="1" parent="1">
          <mxGeometry x="-3190" y="940" width="236" height="66" as="geometry" />
        </mxCell>
        <mxCell id="YsOn6gidDrJ1uqWeEh6G-156" style="edgeStyle=orthogonalEdgeStyle;rounded=0;orthogonalLoop=1;jettySize=auto;html=1;exitX=0.5;exitY=1;exitDx=0;exitDy=0;entryX=0.5;entryY=0;entryDx=0;entryDy=0;" edge="1" parent="1" source="YsOn6gidDrJ1uqWeEh6G-26" target="YsOn6gidDrJ1uqWeEh6G-29">
          <mxGeometry relative="1" as="geometry" />
        </mxCell>
        <mxCell id="YsOn6gidDrJ1uqWeEh6G-26" value="Estructuración de Visualización" style="whiteSpace=wrap;strokeWidth=2;" vertex="1" parent="1">
          <mxGeometry x="-2613" y="940" width="186" height="66" as="geometry" />
        </mxCell>
        <mxCell id="YsOn6gidDrJ1uqWeEh6G-27" value="Revisar y relacionar los datos de fuentes" style="whiteSpace=wrap;strokeWidth=2;" vertex="1" parent="1">
          <mxGeometry x="-3185" y="1080" width="226" height="66" as="geometry" />
        </mxCell>
        <mxCell id="YsOn6gidDrJ1uqWeEh6G-28" value="Crear columnas de calidad del proveedor" style="whiteSpace=wrap;strokeWidth=2;" vertex="1" parent="1">
          <mxGeometry x="-2915.5" y="1080" width="250" height="66" as="geometry" />
        </mxCell>
        <mxCell id="YsOn6gidDrJ1uqWeEh6G-29" value="Diseñar visualización de los datos" style="whiteSpace=wrap;strokeWidth=2;" vertex="1" parent="1">
          <mxGeometry x="-2648" y="1080" width="256" height="66" as="geometry" />
        </mxCell>
        <mxCell id="YsOn6gidDrJ1uqWeEh6G-30" value="Desarrollo del Prototipo" style="whiteSpace=wrap;strokeWidth=2;" vertex="1" parent="1">
          <mxGeometry x="-1260" y="750" width="231" height="48" as="geometry" />
        </mxCell>
        <mxCell id="YsOn6gidDrJ1uqWeEh6G-31" value="Módulo de Web Scraping" style="whiteSpace=wrap;strokeWidth=2;" vertex="1" parent="1">
          <mxGeometry x="-957" y="585" width="235" height="48" as="geometry" />
        </mxCell>
        <mxCell id="YsOn6gidDrJ1uqWeEh6G-32" value="Módulo de la Aplicación" style="whiteSpace=wrap;strokeWidth=2;" vertex="1" parent="1">
          <mxGeometry x="-954" y="915" width="230" height="48" as="geometry" />
        </mxCell>
        <mxCell id="YsOn6gidDrJ1uqWeEh6G-33" value="Uso de Scrapy para extracción de datos" style="whiteSpace=wrap;strokeWidth=2;" vertex="1" parent="1">
          <mxGeometry x="-633" y="460" width="201" height="66" as="geometry" />
        </mxCell>
        <mxCell id="YsOn6gidDrJ1uqWeEh6G-34" value="Uso de Selenium para web dinámica" style="whiteSpace=wrap;strokeWidth=2;" vertex="1" parent="1">
          <mxGeometry x="-657" y="576" width="249" height="66" as="geometry" />
        </mxCell>
        <mxCell id="YsOn6gidDrJ1uqWeEh6G-35" value="Limpieza de Datos Extraídos" style="whiteSpace=wrap;strokeWidth=2;" vertex="1" parent="1">
          <mxGeometry x="-628" y="692" width="191" height="66" as="geometry" />
        </mxCell>
        <mxCell id="YsOn6gidDrJ1uqWeEh6G-36" value="Consulta de Base de Datos" style="whiteSpace=wrap;strokeWidth=2;" vertex="1" parent="1">
          <mxGeometry x="-657" y="808" width="248" height="48" as="geometry" />
        </mxCell>
        <mxCell id="YsOn6gidDrJ1uqWeEh6G-37" value="Implementación de Interfaz con Streamlit" style="whiteSpace=wrap;strokeWidth=2;" vertex="1" parent="1">
          <mxGeometry x="-662" y="906" width="260" height="66" as="geometry" />
        </mxCell>
        <mxCell id="YsOn6gidDrJ1uqWeEh6G-38" value="Integración con Power BI" style="whiteSpace=wrap;strokeWidth=2;" vertex="1" parent="1">
          <mxGeometry x="-652" y="1022" width="238" height="48" as="geometry" />
        </mxCell>
        <mxCell id="YsOn6gidDrJ1uqWeEh6G-39" value="Branding" style="whiteSpace=wrap;strokeWidth=2;" vertex="1" parent="1">
          <mxGeometry x="-2153" y="1224" width="123" height="48" as="geometry" />
        </mxCell>
        <mxCell id="YsOn6gidDrJ1uqWeEh6G-40" value="Creación de Identidad" style="whiteSpace=wrap;strokeWidth=2;" vertex="1" parent="1">
          <mxGeometry x="-1895" y="1108" width="218" height="48" as="geometry" />
        </mxCell>
        <mxCell id="YsOn6gidDrJ1uqWeEh6G-41" value="Validación de Branding" style="whiteSpace=wrap;strokeWidth=2;" vertex="1" parent="1">
          <mxGeometry x="-1898" y="1224" width="224" height="48" as="geometry" />
        </mxCell>
        <mxCell id="YsOn6gidDrJ1uqWeEh6G-42" value="Subir Datos de Branding" style="whiteSpace=wrap;strokeWidth=2;" vertex="1" parent="1">
          <mxGeometry x="-1902" y="1332" width="231" height="48" as="geometry" />
        </mxCell>
        <mxCell id="YsOn6gidDrJ1uqWeEh6G-43" value="Diseñar logo, slogan, banner" style="whiteSpace=wrap;strokeWidth=2;" vertex="1" parent="1">
          <mxGeometry x="-1584" y="1100" width="209" height="66" as="geometry" />
        </mxCell>
        <mxCell id="YsOn6gidDrJ1uqWeEh6G-44" value="Elegir diseño final y validación" style="whiteSpace=wrap;strokeWidth=2;" vertex="1" parent="1">
          <mxGeometry x="-1581" y="1216" width="202" height="66" as="geometry" />
        </mxCell>
        <mxCell id="YsOn6gidDrJ1uqWeEh6G-45" value="Subir logo, slogan y banner" style="whiteSpace=wrap;strokeWidth=2;" vertex="1" parent="1">
          <mxGeometry x="-1607" y="1332" width="255" height="48" as="geometry" />
        </mxCell>
        <mxCell id="YsOn6gidDrJ1uqWeEh6G-46" value="Diseño" style="whiteSpace=wrap;strokeWidth=2;" vertex="1" parent="1">
          <mxGeometry x="-1219" y="1378" width="107" height="48" as="geometry" />
        </mxCell>
        <mxCell id="YsOn6gidDrJ1uqWeEh6G-47" value="Diseño de la Interfaz de Usuario (UI)" style="whiteSpace=wrap;strokeWidth=2;" vertex="1" parent="1">
          <mxGeometry x="-976" y="1253" width="231" height="66" as="geometry" />
        </mxCell>
        <mxCell id="YsOn6gidDrJ1uqWeEh6G-48" value="Diseño de Llamados a la Acción" style="whiteSpace=wrap;strokeWidth=2;" vertex="1" parent="1">
          <mxGeometry x="-976" y="1369" width="232" height="66" as="geometry" />
        </mxCell>
        <mxCell id="YsOn6gidDrJ1uqWeEh6G-49" value="Elección e Implementación de Dominio Web" style="whiteSpace=wrap;strokeWidth=2;" vertex="1" parent="1">
          <mxGeometry x="-987" y="1485" width="254" height="66" as="geometry" />
        </mxCell>
        <mxCell id="YsOn6gidDrJ1uqWeEh6G-50" value="Crear landing page" style="whiteSpace=wrap;strokeWidth=2;" vertex="1" parent="1">
          <mxGeometry x="-651" y="1262" width="195" height="48" as="geometry" />
        </mxCell>
        <mxCell id="YsOn6gidDrJ1uqWeEh6G-51" value="Diseñar botón de inscripción al boletín" style="whiteSpace=wrap;strokeWidth=2;" vertex="1" parent="1">
          <mxGeometry x="-659" y="1369" width="211" height="66" as="geometry" />
        </mxCell>
        <mxCell id="YsOn6gidDrJ1uqWeEh6G-52" value="Seleccionar y configurar dominio web" style="whiteSpace=wrap;strokeWidth=2;" vertex="1" parent="1">
          <mxGeometry x="-671" y="1485" width="234" height="66" as="geometry" />
        </mxCell>
        <mxCell id="YsOn6gidDrJ1uqWeEh6G-53" value="Marketing" style="whiteSpace=wrap;strokeWidth=2;" vertex="1" parent="1">
          <mxGeometry x="-2164" y="1552" width="131" height="48" as="geometry" />
        </mxCell>
        <mxCell id="YsOn6gidDrJ1uqWeEh6G-54" value="Creación de Material Promocional" style="whiteSpace=wrap;strokeWidth=2;" vertex="1" parent="1">
          <mxGeometry x="-1898" y="1485" width="209" height="66" as="geometry" />
        </mxCell>
        <mxCell id="YsOn6gidDrJ1uqWeEh6G-55" value="Preparación para la Exposición" style="whiteSpace=wrap;strokeWidth=2;" vertex="1" parent="1">
          <mxGeometry x="-1893" y="1655" width="200" height="66" as="geometry" />
        </mxCell>
        <mxCell id="YsOn6gidDrJ1uqWeEh6G-56" value="Crear video demo" style="whiteSpace=wrap;strokeWidth=2;" vertex="1" parent="1">
          <mxGeometry x="-1580" y="1440" width="187" height="48" as="geometry" />
        </mxCell>
        <mxCell id="YsOn6gidDrJ1uqWeEh6G-57" value="Desarrollar presentación de pitch" style="whiteSpace=wrap;strokeWidth=2;" vertex="1" parent="1">
          <mxGeometry x="-1616" y="1539" width="258" height="66" as="geometry" />
        </mxCell>
        <mxCell id="YsOn6gidDrJ1uqWeEh6G-58" value="Preparar equipo para exposición" style="whiteSpace=wrap;strokeWidth=2;" vertex="1" parent="1">
          <mxGeometry x="-1592" y="1655" width="211" height="66" as="geometry" />
        </mxCell>
        <mxCell id="YsOn6gidDrJ1uqWeEh6G-59" value="Entrega Final y Presentación" style="whiteSpace=wrap;strokeWidth=2;" vertex="1" parent="1">
          <mxGeometry x="-2183" y="1829" width="168" height="66" as="geometry" />
        </mxCell>
        <mxCell id="YsOn6gidDrJ1uqWeEh6G-60" value="Revisión Final" style="whiteSpace=wrap;strokeWidth=2;" vertex="1" parent="1">
          <mxGeometry x="-1872" y="1780" width="158" height="48" as="geometry" />
        </mxCell>
        <mxCell id="YsOn6gidDrJ1uqWeEh6G-61" value="Presentación de la Idea" style="whiteSpace=wrap;strokeWidth=2;" vertex="1" parent="1">
          <mxGeometry x="-1907" y="1896" width="227" height="48" as="geometry" />
        </mxCell>
        <mxCell id="YsOn6gidDrJ1uqWeEh6G-62" value="Revisión exhaustiva de la aplicación" style="whiteSpace=wrap;strokeWidth=2;" vertex="1" parent="1">
          <mxGeometry x="-1607" y="1771" width="240" height="66" as="geometry" />
        </mxCell>
        <mxCell id="YsOn6gidDrJ1uqWeEh6G-63" value="Exponer la aplicación a stakeholders" style="whiteSpace=wrap;strokeWidth=2;" vertex="1" parent="1">
          <mxGeometry x="-1600" y="1887" width="227" height="66" as="geometry" />
        </mxCell>
        <mxCell id="YsOn6gidDrJ1uqWeEh6G-73" value="" style="curved=1;startArrow=none;endArrow=block;exitX=1;exitY=0.51;entryX=0;entryY=0.51;rounded=0;" edge="1" parent="1" source="YsOn6gidDrJ1uqWeEh6G-10" target="YsOn6gidDrJ1uqWeEh6G-12">
          <mxGeometry relative="1" as="geometry">
            <Array as="points" />
          </mxGeometry>
        </mxCell>
        <mxCell id="YsOn6gidDrJ1uqWeEh6G-89" value="" style="curved=1;startArrow=none;endArrow=block;exitX=0.6;exitY=0;entryX=0;entryY=0.5;rounded=0;" edge="1" parent="1" source="YsOn6gidDrJ1uqWeEh6G-30" target="YsOn6gidDrJ1uqWeEh6G-31">
          <mxGeometry relative="1" as="geometry">
            <Array as="points">
              <mxPoint x="-991" y="609" />
            </Array>
          </mxGeometry>
        </mxCell>
        <mxCell id="YsOn6gidDrJ1uqWeEh6G-90" value="" style="curved=1;startArrow=none;endArrow=block;exitX=0.6;exitY=1;entryX=0;entryY=0.5;rounded=0;" edge="1" parent="1" source="YsOn6gidDrJ1uqWeEh6G-30" target="YsOn6gidDrJ1uqWeEh6G-32">
          <mxGeometry relative="1" as="geometry">
            <Array as="points">
              <mxPoint x="-991" y="939" />
            </Array>
          </mxGeometry>
        </mxCell>
        <mxCell id="YsOn6gidDrJ1uqWeEh6G-91" value="" style="curved=1;startArrow=none;endArrow=block;exitX=0.64;exitY=-0.01;entryX=0;entryY=0.5;rounded=0;" edge="1" parent="1" source="YsOn6gidDrJ1uqWeEh6G-31" target="YsOn6gidDrJ1uqWeEh6G-33">
          <mxGeometry relative="1" as="geometry">
            <Array as="points">
              <mxPoint x="-687" y="493" />
            </Array>
          </mxGeometry>
        </mxCell>
        <mxCell id="YsOn6gidDrJ1uqWeEh6G-92" value="" style="curved=1;startArrow=none;endArrow=block;exitX=1;exitY=0.5;entryX=0;entryY=0.5;rounded=0;" edge="1" parent="1" source="YsOn6gidDrJ1uqWeEh6G-31" target="YsOn6gidDrJ1uqWeEh6G-34">
          <mxGeometry relative="1" as="geometry">
            <Array as="points" />
          </mxGeometry>
        </mxCell>
        <mxCell id="YsOn6gidDrJ1uqWeEh6G-93" value="" style="curved=1;startArrow=none;endArrow=block;exitX=0.64;exitY=1;entryX=0;entryY=0.5;rounded=0;" edge="1" parent="1" source="YsOn6gidDrJ1uqWeEh6G-31" target="YsOn6gidDrJ1uqWeEh6G-35">
          <mxGeometry relative="1" as="geometry">
            <Array as="points">
              <mxPoint x="-687" y="725" />
            </Array>
          </mxGeometry>
        </mxCell>
        <mxCell id="YsOn6gidDrJ1uqWeEh6G-94" value="" style="curved=1;startArrow=none;endArrow=block;exitX=0.65;exitY=0;entryX=0;entryY=0.5;rounded=0;" edge="1" parent="1" source="YsOn6gidDrJ1uqWeEh6G-32" target="YsOn6gidDrJ1uqWeEh6G-36">
          <mxGeometry relative="1" as="geometry">
            <Array as="points">
              <mxPoint x="-687" y="832" />
            </Array>
          </mxGeometry>
        </mxCell>
        <mxCell id="YsOn6gidDrJ1uqWeEh6G-95" value="" style="curved=1;startArrow=none;endArrow=block;exitX=1;exitY=0.5;entryX=0;entryY=0.5;rounded=0;" edge="1" parent="1" source="YsOn6gidDrJ1uqWeEh6G-32" target="YsOn6gidDrJ1uqWeEh6G-37">
          <mxGeometry relative="1" as="geometry">
            <Array as="points" />
          </mxGeometry>
        </mxCell>
        <mxCell id="YsOn6gidDrJ1uqWeEh6G-96" value="" style="curved=1;startArrow=none;endArrow=block;exitX=0.65;exitY=1.01;entryX=0;entryY=0.51;rounded=0;" edge="1" parent="1" source="YsOn6gidDrJ1uqWeEh6G-32" target="YsOn6gidDrJ1uqWeEh6G-38">
          <mxGeometry relative="1" as="geometry">
            <Array as="points">
              <mxPoint x="-687" y="1046" />
            </Array>
          </mxGeometry>
        </mxCell>
        <mxCell id="YsOn6gidDrJ1uqWeEh6G-97" value="" style="curved=1;startArrow=none;endArrow=block;exitX=0.76;exitY=0.01;entryX=0;entryY=0.51;rounded=0;" edge="1" parent="1" source="YsOn6gidDrJ1uqWeEh6G-39" target="YsOn6gidDrJ1uqWeEh6G-40">
          <mxGeometry relative="1" as="geometry">
            <Array as="points">
              <mxPoint x="-1938" y="1133" />
            </Array>
          </mxGeometry>
        </mxCell>
        <mxCell id="YsOn6gidDrJ1uqWeEh6G-98" value="" style="curved=1;startArrow=none;endArrow=block;exitX=1;exitY=0.51;entryX=0;entryY=0.51;rounded=0;" edge="1" parent="1" source="YsOn6gidDrJ1uqWeEh6G-39" target="YsOn6gidDrJ1uqWeEh6G-41">
          <mxGeometry relative="1" as="geometry">
            <Array as="points" />
          </mxGeometry>
        </mxCell>
        <mxCell id="YsOn6gidDrJ1uqWeEh6G-99" value="" style="curved=1;startArrow=none;endArrow=block;exitX=0.78;exitY=1.02;entryX=0;entryY=0.5;rounded=0;" edge="1" parent="1" source="YsOn6gidDrJ1uqWeEh6G-39" target="YsOn6gidDrJ1uqWeEh6G-42">
          <mxGeometry relative="1" as="geometry">
            <Array as="points">
              <mxPoint x="-1938" y="1356" />
            </Array>
          </mxGeometry>
        </mxCell>
        <mxCell id="YsOn6gidDrJ1uqWeEh6G-100" value="" style="curved=1;startArrow=none;endArrow=block;exitX=1;exitY=0.51;entryX=0;entryY=0.49;rounded=0;" edge="1" parent="1" source="YsOn6gidDrJ1uqWeEh6G-40" target="YsOn6gidDrJ1uqWeEh6G-43">
          <mxGeometry relative="1" as="geometry">
            <Array as="points" />
          </mxGeometry>
        </mxCell>
        <mxCell id="YsOn6gidDrJ1uqWeEh6G-101" value="" style="curved=1;startArrow=none;endArrow=block;exitX=1;exitY=0.51;entryX=0;entryY=0.49;rounded=0;" edge="1" parent="1" source="YsOn6gidDrJ1uqWeEh6G-41" target="YsOn6gidDrJ1uqWeEh6G-44">
          <mxGeometry relative="1" as="geometry">
            <Array as="points" />
          </mxGeometry>
        </mxCell>
        <mxCell id="YsOn6gidDrJ1uqWeEh6G-102" value="" style="curved=1;startArrow=none;endArrow=block;exitX=1;exitY=0.5;entryX=0;entryY=0.5;rounded=0;" edge="1" parent="1" source="YsOn6gidDrJ1uqWeEh6G-42" target="YsOn6gidDrJ1uqWeEh6G-45">
          <mxGeometry relative="1" as="geometry">
            <Array as="points" />
          </mxGeometry>
        </mxCell>
        <mxCell id="YsOn6gidDrJ1uqWeEh6G-103" value="" style="curved=1;startArrow=none;endArrow=block;exitX=0.8;exitY=0;entryX=0;entryY=0.5;rounded=0;" edge="1" parent="1" source="YsOn6gidDrJ1uqWeEh6G-46" target="YsOn6gidDrJ1uqWeEh6G-47">
          <mxGeometry relative="1" as="geometry">
            <Array as="points">
              <mxPoint x="-1012" y="1286" />
            </Array>
          </mxGeometry>
        </mxCell>
        <mxCell id="YsOn6gidDrJ1uqWeEh6G-104" value="" style="curved=1;startArrow=none;endArrow=block;exitX=1;exitY=0.5;entryX=0;entryY=0.5;rounded=0;" edge="1" parent="1" source="YsOn6gidDrJ1uqWeEh6G-46" target="YsOn6gidDrJ1uqWeEh6G-48">
          <mxGeometry relative="1" as="geometry">
            <Array as="points" />
          </mxGeometry>
        </mxCell>
        <mxCell id="YsOn6gidDrJ1uqWeEh6G-105" value="" style="curved=1;startArrow=none;endArrow=block;exitX=0.8;exitY=1;entryX=0;entryY=0.5;rounded=0;" edge="1" parent="1" source="YsOn6gidDrJ1uqWeEh6G-46" target="YsOn6gidDrJ1uqWeEh6G-49">
          <mxGeometry relative="1" as="geometry">
            <Array as="points">
              <mxPoint x="-1012" y="1518" />
            </Array>
          </mxGeometry>
        </mxCell>
        <mxCell id="YsOn6gidDrJ1uqWeEh6G-106" value="" style="curved=1;startArrow=none;endArrow=block;exitX=1;exitY=0.5;entryX=0;entryY=0.5;rounded=0;" edge="1" parent="1" source="YsOn6gidDrJ1uqWeEh6G-47" target="YsOn6gidDrJ1uqWeEh6G-50">
          <mxGeometry relative="1" as="geometry">
            <Array as="points" />
          </mxGeometry>
        </mxCell>
        <mxCell id="YsOn6gidDrJ1uqWeEh6G-107" value="" style="curved=1;startArrow=none;endArrow=block;exitX=1;exitY=0.5;entryX=0;entryY=0.5;rounded=0;" edge="1" parent="1" source="YsOn6gidDrJ1uqWeEh6G-48" target="YsOn6gidDrJ1uqWeEh6G-51">
          <mxGeometry relative="1" as="geometry">
            <Array as="points" />
          </mxGeometry>
        </mxCell>
        <mxCell id="YsOn6gidDrJ1uqWeEh6G-108" value="" style="curved=1;startArrow=none;endArrow=block;exitX=1;exitY=0.5;entryX=0;entryY=0.5;rounded=0;" edge="1" parent="1" source="YsOn6gidDrJ1uqWeEh6G-49" target="YsOn6gidDrJ1uqWeEh6G-52">
          <mxGeometry relative="1" as="geometry">
            <Array as="points" />
          </mxGeometry>
        </mxCell>
        <mxCell id="YsOn6gidDrJ1uqWeEh6G-109" value="" style="curved=1;startArrow=none;endArrow=block;exitX=0.99;exitY=0;entryX=0;entryY=0.5;rounded=0;" edge="1" parent="1" source="YsOn6gidDrJ1uqWeEh6G-53" target="YsOn6gidDrJ1uqWeEh6G-54">
          <mxGeometry relative="1" as="geometry">
            <Array as="points">
              <mxPoint x="-1945" y="1518" />
            </Array>
          </mxGeometry>
        </mxCell>
        <mxCell id="YsOn6gidDrJ1uqWeEh6G-110" value="" style="curved=1;startArrow=none;endArrow=block;exitX=0.75;exitY=1.01;entryX=0;entryY=0.5;rounded=0;" edge="1" parent="1" source="YsOn6gidDrJ1uqWeEh6G-53" target="YsOn6gidDrJ1uqWeEh6G-55">
          <mxGeometry relative="1" as="geometry">
            <Array as="points">
              <mxPoint x="-1945" y="1688" />
            </Array>
          </mxGeometry>
        </mxCell>
        <mxCell id="YsOn6gidDrJ1uqWeEh6G-111" value="" style="curved=1;startArrow=none;endArrow=block;exitX=0.95;exitY=0;entryX=0;entryY=0.51;rounded=0;" edge="1" parent="1" source="YsOn6gidDrJ1uqWeEh6G-54" target="YsOn6gidDrJ1uqWeEh6G-56">
          <mxGeometry relative="1" as="geometry">
            <Array as="points">
              <mxPoint x="-1641" y="1465" />
            </Array>
          </mxGeometry>
        </mxCell>
        <mxCell id="YsOn6gidDrJ1uqWeEh6G-112" value="" style="curved=1;startArrow=none;endArrow=block;exitX=0.95;exitY=1;entryX=0;entryY=0.5;rounded=0;" edge="1" parent="1" source="YsOn6gidDrJ1uqWeEh6G-54" target="YsOn6gidDrJ1uqWeEh6G-57">
          <mxGeometry relative="1" as="geometry">
            <Array as="points">
              <mxPoint x="-1641" y="1572" />
            </Array>
          </mxGeometry>
        </mxCell>
        <mxCell id="YsOn6gidDrJ1uqWeEh6G-113" value="" style="curved=1;startArrow=none;endArrow=block;exitX=1;exitY=0.5;entryX=0;entryY=0.5;rounded=0;" edge="1" parent="1" source="YsOn6gidDrJ1uqWeEh6G-55" target="YsOn6gidDrJ1uqWeEh6G-58">
          <mxGeometry relative="1" as="geometry">
            <Array as="points" />
          </mxGeometry>
        </mxCell>
        <mxCell id="YsOn6gidDrJ1uqWeEh6G-114" value="" style="curved=1;startArrow=none;endArrow=block;exitX=1;exitY=0.02;entryX=0;entryY=0.5;rounded=0;" edge="1" parent="1" source="YsOn6gidDrJ1uqWeEh6G-59" target="YsOn6gidDrJ1uqWeEh6G-60">
          <mxGeometry relative="1" as="geometry">
            <Array as="points">
              <mxPoint x="-1945" y="1804" />
            </Array>
          </mxGeometry>
        </mxCell>
        <mxCell id="YsOn6gidDrJ1uqWeEh6G-115" value="" style="curved=1;startArrow=none;endArrow=block;exitX=1;exitY=0.98;entryX=0;entryY=0.5;rounded=0;" edge="1" parent="1" source="YsOn6gidDrJ1uqWeEh6G-59" target="YsOn6gidDrJ1uqWeEh6G-61">
          <mxGeometry relative="1" as="geometry">
            <Array as="points">
              <mxPoint x="-1945" y="1920" />
            </Array>
          </mxGeometry>
        </mxCell>
        <mxCell id="YsOn6gidDrJ1uqWeEh6G-116" value="" style="curved=1;startArrow=none;endArrow=block;exitX=1;exitY=0.5;entryX=0;entryY=0.5;rounded=0;" edge="1" parent="1" source="YsOn6gidDrJ1uqWeEh6G-60" target="YsOn6gidDrJ1uqWeEh6G-62">
          <mxGeometry relative="1" as="geometry">
            <Array as="points" />
          </mxGeometry>
        </mxCell>
        <mxCell id="YsOn6gidDrJ1uqWeEh6G-117" value="" style="curved=1;startArrow=none;endArrow=block;exitX=1;exitY=0.5;entryX=0;entryY=0.5;rounded=0;" edge="1" parent="1" source="YsOn6gidDrJ1uqWeEh6G-61" target="YsOn6gidDrJ1uqWeEh6G-63">
          <mxGeometry relative="1" as="geometry">
            <Array as="points" />
          </mxGeometry>
        </mxCell>
        <mxCell id="YsOn6gidDrJ1uqWeEh6G-154" style="edgeStyle=orthogonalEdgeStyle;rounded=0;orthogonalLoop=1;jettySize=auto;html=1;exitX=0;exitY=0.5;exitDx=0;exitDy=0;entryX=1;entryY=0.5;entryDx=0;entryDy=0;" edge="1" parent="1" source="YsOn6gidDrJ1uqWeEh6G-25" target="YsOn6gidDrJ1uqWeEh6G-24">
          <mxGeometry relative="1" as="geometry" />
        </mxCell>
        <mxCell id="YsOn6gidDrJ1uqWeEh6G-155" style="edgeStyle=orthogonalEdgeStyle;rounded=0;orthogonalLoop=1;jettySize=auto;html=1;exitX=0.5;exitY=1;exitDx=0;exitDy=0;entryX=0.5;entryY=0;entryDx=0;entryDy=0;" edge="1" parent="1" source="YsOn6gidDrJ1uqWeEh6G-25" target="YsOn6gidDrJ1uqWeEh6G-28">
          <mxGeometry relative="1" as="geometry" />
        </mxCell>
        <mxCell id="YsOn6gidDrJ1uqWeEh6G-25" value="Creación de Columnas Calculadas" style="whiteSpace=wrap;strokeWidth=2;" vertex="1" parent="1">
          <mxGeometry x="-2900" y="940" width="219" height="66" as="geometry" />
        </mxCell>
      </root>
    </mxGraphModel>
  </diagram>
</mxfile>
